<?xml version="1.0" encoding="UTF-8"?>
<!DOCTYPE svg PUBLIC "-//W3C//DTD SVG 1.1//EN" "http://www.w3.org/Graphics/SVG/1.1/DTD/svg11.dtd">
<!-- Creator: CorelDRAW -->
<svg xmlns="http://www.w3.org/2000/svg" xml:space="preserve" width="118.101mm" height="121.216mm" version="1.1" style="shape-rendering:geometricPrecision; text-rendering:geometricPrecision; image-rendering:optimizeQuality; fill-rule:evenodd; clip-rule:evenodd"
viewBox="0 0 4355.9 4470.81"
 xmlns:xlink="http://www.w3.org/1999/xlink"
 xmlns:xodm="http://www.corel.com/coreldraw/odm/2003">
 <defs>
  <style type="text/css">
   <![CDATA[
    .fil0 {fill:#184D74}
    .fil1 {fill:#A61313}
   ]]>
  </style>
 </defs>
 <g id="Layer_x0020_1">
  <metadata id="CorelCorpID_0Corel-Layer"/>
  <path class="fil0" d="M1201 4444.38c21.14,-80.77 6.82,-1875.38 6.45,-2119.4 -0.56,-375.15 -51.47,-671.82 174.09,-899.43 317.48,-320.38 673.45,-74.93 796.21,-77.4 23.58,-111.84 -24.32,-128.97 -84.77,-188.38 -54.9,-53.95 -67.99,-85.6 -138.9,-147.31l-344.49 -371.06c-26.15,-27.4 -42.06,-48.08 -66.46,-76.9 -45.89,-54.23 -89.8,-96.25 -134.84,-151.4 -28.38,-34.75 -40.04,-39.07 -71.81,-70.94l-208.34 -221.58c-234.36,-218.07 -1009.54,-171.65 -1107.1,400.14 -36.15,211.86 -14.89,2876.89 -14.42,3431.25 0.17,199.52 73.57,308.95 179.66,389.62 144.86,110.14 245.84,117.5 455.21,115.55 105.04,-0.98 493,20.34 559.5,-12.77zm2801.35 -3778.72l321.98 -2.87c44.68,-342.53 -50.28,-561.93 -349.97,-616.38 -125.74,-22.85 -837.65,-23.07 -912.86,13.2 -26.59,95.02 -14,1452.84 -13.67,1745.48 0.15,135.05 37,118.25 106.42,180.32 176.34,157.64 261.56,409.67 175.46,633.95 -104.98,273.5 -367.67,374.68 -631.14,539.34 -297.25,185.76 -448.99,203.63 -276.39,352.22l667.5 698.72c32.32,35.58 61.44,60.45 95.74,99.54 229.39,261.43 791.17,182.23 996.6,-70.16 165.98,-203.91 161.38,-314.94 162.22,-625.91l2.9 -1953.06c1.52,-134.66 1.08,-66.97 -295.91,-86.6l3.34 -285.06c70.43,-6.21 217.89,22.65 262.64,-22.79 53,-43.5 38.51,-345.01 31.3,-424.81l-353.09 -0.52 6.94 -174.61z"/>
  <path class="fil1" d="M2968.45 2507.14c101.96,-263.76 -144.59,-359.3 -300.43,-452.15 -162.68,-96.93 -316.19,-187.2 -480.71,-286.76 -174.32,-105.49 -365.92,-264.75 -530.67,-132.45 -89.04,71.5 -96.97,139.98 -99.05,285.69 -2.76,193.2 -11.92,1065.02 13.1,1140.22 28,84.2 106.66,166.14 216.65,172.89 112.85,6.93 196.52,-58.24 270.73,-104.67 161.23,-100.87 319.95,-192.34 476.02,-291.43 162.31,-103.05 383.65,-200.14 434.36,-331.34z"/>
 </g>
</svg>
